<svg id="Qwerty" xmlns="http://www.w3.org/2000/svg" width="367.881" height="112.211" viewBox="0 0 367.881 112.211">
  <path id="path9" d="M20.837,16H365.991c6.155,0,10.89,4.261,10.89,10.416v90.9a11.013,11.013,0,0,1-10.89,10.89H20.837C14.208,128.211,9,123,9,117.321v-90.9C9,20.261,14.208,16,20.837,16Z" transform="translate(-9 -16)" fill="#fcfcfc" fill-rule="evenodd"/>
  <path id="path11" d="M45.42,96H54.89a1.512,1.512,0,0,1,1.42,1.42v8.049a1.512,1.512,0,0,1-1.42,1.42H45.42a1.255,1.255,0,0,1-1.42-1.42V97.42A1.255,1.255,0,0,1,45.42,96Z" transform="translate(-27.429 -58.123)" fill="#d5d5d5" stroke="#202326" stroke-width="0" fill-rule="evenodd"/>
  <path id="path13" d="M75.42,96H84.89a1.255,1.255,0,0,1,1.42,1.42v8.049a1.255,1.255,0,0,1-1.42,1.42H75.42a1.255,1.255,0,0,1-1.42-1.42V97.42A1.255,1.255,0,0,1,75.42,96Z" transform="translate(-43.225 -58.123)" fill="#d5d5d5" stroke="#202326" stroke-width="0" fill-rule="evenodd"/>
  <path id="path15" d="M104.947,96h9.469a1.255,1.255,0,0,1,1.42,1.42v8.049a1.255,1.255,0,0,1-1.42,1.42h-9.469c-.473,0-.947-.473-.947-1.42V97.42C104,96.473,104.473,96,104.947,96Z" transform="translate(-59.021 -58.123)" fill="#d5d5d5" stroke="#202326" stroke-width="0" fill-rule="evenodd"/>
  <path id="path17" d="M134.42,96h9.469a1.255,1.255,0,0,1,1.42,1.42v8.049a1.255,1.255,0,0,1-1.42,1.42H134.42a1.255,1.255,0,0,1-1.42-1.42V97.42A1.255,1.255,0,0,1,134.42,96Z" transform="translate(-74.291 -58.123)" fill="#d5d5d5" stroke="#202326" stroke-width="0" fill-rule="evenodd"/>
  <path id="path19" d="M164.42,96h9.469a1.255,1.255,0,0,1,1.42,1.42v8.049a1.255,1.255,0,0,1-1.42,1.42H164.42a1.512,1.512,0,0,1-1.42-1.42V97.42A1.512,1.512,0,0,1,164.42,96Z" transform="translate(-90.087 -58.123)" fill="#d5d5d5" stroke="#202326" stroke-width="0" fill-rule="evenodd"/>
  <path id="path21" d="M194.42,96h9a1.255,1.255,0,0,1,1.42,1.42v8.049a1.255,1.255,0,0,1-1.42,1.42h-9a1.512,1.512,0,0,1-1.42-1.42V97.42A1.512,1.512,0,0,1,194.42,96Z" transform="translate(-105.883 -58.123)" fill="#d5d5d5" stroke="#202326" stroke-width="0" fill-rule="evenodd"/>
  <path id="path23" d="M223.42,96h9.469a1.255,1.255,0,0,1,1.42,1.42v8.049a1.255,1.255,0,0,1-1.42,1.42H223.42a1.512,1.512,0,0,1-1.42-1.42V97.42A1.512,1.512,0,0,1,223.42,96Z" transform="translate(-121.152 -58.123)" fill="#d5d5d5" stroke="#202326" stroke-width="0" fill-rule="evenodd"/>
  <path id="path25" d="M253.42,96h9.469a1.255,1.255,0,0,1,1.42,1.42v8.049a1.255,1.255,0,0,1-1.42,1.42H253.42a1.512,1.512,0,0,1-1.42-1.42V97.42A1.512,1.512,0,0,1,253.42,96Z" transform="translate(-136.949 -58.123)" fill="#d5d5d5" stroke="#202326" stroke-width="0" fill-rule="evenodd"/>
  <path id="path27" d="M283.42,96h9a1.255,1.255,0,0,1,1.42,1.42v8.049a1.255,1.255,0,0,1-1.42,1.42h-9a1.512,1.512,0,0,1-1.42-1.42V97.42A1.512,1.512,0,0,1,283.42,96Z" transform="translate(-152.745 -58.123)" fill="#d5d5d5" stroke="#202326" stroke-width="0" fill-rule="evenodd"/>
  <path id="path29" d="M312.42,96h9.469a1.255,1.255,0,0,1,1.42,1.42v8.049a1.255,1.255,0,0,1-1.42,1.42H312.42a1.512,1.512,0,0,1-1.42-1.42V97.42A1.512,1.512,0,0,1,312.42,96Z" transform="translate(-168.014 -58.123)" fill="#d5d5d5" stroke="#202326" stroke-width="0" fill-rule="evenodd"/>
  <path id="path31" d="M342.42,96h9.469a1.255,1.255,0,0,1,1.42,1.42v8.049a1.255,1.255,0,0,1-1.42,1.42H342.42a1.512,1.512,0,0,1-1.42-1.42V97.42A1.512,1.512,0,0,1,342.42,96Z" transform="translate(-183.81 -58.123)" fill="#d5d5d5" stroke="#202326" stroke-width="0" fill-rule="evenodd"/>
  <path id="path33" d="M372.42,96h9.469c.473,0,.947.473.947,1.42v8.049c0,.947-.473,1.42-.947,1.42H372.42a1.512,1.512,0,0,1-1.42-1.42V97.42A1.512,1.512,0,0,1,372.42,96Z" transform="translate(-199.606 -58.123)" fill="#d5d5d5" stroke="#202326" stroke-width="0" fill-rule="evenodd"/>
  <path id="path35" d="M401.947,96h9.469a1.255,1.255,0,0,1,1.42,1.42v8.049a1.255,1.255,0,0,1-1.42,1.42h-9.469c-.473,0-.947-.473-.947-1.42V97.42C401,96.473,401.473,96,401.947,96Z" transform="translate(-215.403 -58.123)" fill="#d5d5d5" stroke="#202326" stroke-width="0" fill-rule="evenodd"/>
  <path id="path37" d="M431.947,96h9.469a1.255,1.255,0,0,1,1.42,1.42v8.049a1.255,1.255,0,0,1-1.42,1.42h-9.469c-.473,0-.947-.473-.947-1.42V97.42C431,96.473,431.473,96,431.947,96Z" transform="translate(-231.199 -58.123)" fill="#d5d5d5" stroke="#202326" stroke-width="0" fill-rule="evenodd"/>
  <path id="path39" d="M461.947,96h9.469a1.255,1.255,0,0,1,1.42,1.42v8.049a1.255,1.255,0,0,1-1.42,1.42h-9.469c-.473,0-.947-.473-.947-1.42V97.42C461,96.473,461.473,96,461.947,96Z" transform="translate(-246.995 -58.123)" fill="#d5d5d5" stroke="#202326" stroke-width="0" fill-rule="evenodd"/>
  <path id="path41" d="M93.42,121h9a1.255,1.255,0,0,1,1.42,1.42v8.522a1.512,1.512,0,0,1-1.42,1.42h-9a2.134,2.134,0,0,1-1.42-1.42V122.42A1.512,1.512,0,0,1,93.42,121Z" transform="translate(-52.703 -71.286)" fill="#d5d5d5" stroke="#202326" stroke-width="0" fill-rule="evenodd"/>
  <path id="path43" d="M122.42,121h9.469a1.255,1.255,0,0,1,1.42,1.42v8.522a1.512,1.512,0,0,1-1.42,1.42H122.42a2.134,2.134,0,0,1-1.42-1.42V122.42A1.512,1.512,0,0,1,122.42,121Z" transform="translate(-67.972 -71.286)" fill="#d5d5d5" stroke="#202326" stroke-width="0" fill-rule="evenodd"/>
  <path id="path45" d="M152.42,121h9.469a1.255,1.255,0,0,1,1.42,1.42v8.522a1.512,1.512,0,0,1-1.42,1.42H152.42a2.134,2.134,0,0,1-1.42-1.42V122.42A1.512,1.512,0,0,1,152.42,121Z" transform="translate(-83.768 -71.286)" fill="#d5d5d5" stroke="#202326" stroke-width="0" fill-rule="evenodd"/>
  <path id="path47" d="M182.42,121h9a1.255,1.255,0,0,1,1.42,1.42v8.522a1.512,1.512,0,0,1-1.42,1.42h-9a2.134,2.134,0,0,1-1.42-1.42V122.42A1.512,1.512,0,0,1,182.42,121Z" transform="translate(-99.564 -71.286)" fill="#d5d5d5" stroke="#202326" stroke-width="0" fill-rule="evenodd"/>
  <path id="path49" d="M211.947,121h9.469a1.255,1.255,0,0,1,1.42,1.42v8.522a1.512,1.512,0,0,1-1.42,1.42h-9.469c-.473,0-.947-.947-.947-1.42V122.42C211,121.473,211.473,121,211.947,121Z" transform="translate(-115.361 -71.286)" fill="#d5d5d5" stroke="#202326" stroke-width="0" fill-rule="evenodd"/>
  <path id="path51" d="M241.947,121h9.469a1.255,1.255,0,0,1,1.42,1.42v8.522a1.512,1.512,0,0,1-1.42,1.42h-9.469c-.473,0-.947-.947-.947-1.42V122.42C241,121.473,241.473,121,241.947,121Z" transform="translate(-131.157 -71.286)" fill="#d5d5d5" stroke="#202326" stroke-width="0" fill-rule="evenodd"/>
  <path id="path53" d="M271.947,121h9.469a1.255,1.255,0,0,1,1.42,1.42v8.522a1.512,1.512,0,0,1-1.42,1.42h-9.469c-.473,0-.947-.947-.947-1.42V122.42C271,121.473,271.473,121,271.947,121Z" transform="translate(-146.953 -71.286)" fill="#d5d5d5" stroke="#202326" stroke-width="0" fill-rule="evenodd"/>
  <path id="path55" d="M300.947,121h9.469a1.255,1.255,0,0,1,1.42,1.42v8.522a1.512,1.512,0,0,1-1.42,1.42h-9.469c-.473,0-.947-.947-.947-1.42V122.42C300,121.473,300.473,121,300.947,121Z" transform="translate(-162.222 -71.286)" fill="#d5d5d5" stroke="#202326" stroke-width="0" fill-rule="evenodd"/>
  <path id="path57" d="M330.947,121h9.469a1.255,1.255,0,0,1,1.42,1.42v8.522a1.512,1.512,0,0,1-1.42,1.42h-9.469c-.473,0-.947-.947-.947-1.42V122.42C330,121.473,330.473,121,330.947,121Z" transform="translate(-178.018 -71.286)" fill="#d5d5d5" stroke="#202326" stroke-width="0" fill-rule="evenodd"/>
  <path id="path59" d="M360.947,121h9.469a1.255,1.255,0,0,1,1.42,1.42v8.522a1.512,1.512,0,0,1-1.42,1.42h-9.469c-.473,0-.947-.947-.947-1.42V122.42C360,121.473,360.473,121,360.947,121Z" transform="translate(-193.815 -71.286)" fill="#d5d5d5" stroke="#202326" stroke-width="0" fill-rule="evenodd"/>
  <path id="path61" d="M390.947,121h9a1.255,1.255,0,0,1,1.42,1.42v8.522a1.512,1.512,0,0,1-1.42,1.42h-9c-.474,0-.947-.947-.947-1.42V122.42C390,121.473,390.473,121,390.947,121Z" transform="translate(-209.611 -71.286)" fill="#d5d5d5" stroke="#202326" stroke-width="0" fill-rule="evenodd"/>
  <path id="path63" d="M419.947,121h9.469a1.255,1.255,0,0,1,1.42,1.42v8.522a1.512,1.512,0,0,1-1.42,1.42h-9.469c-.473,0-.947-.947-.947-1.42V122.42C419,121.473,419.473,121,419.947,121Z" transform="translate(-224.88 -71.286)" fill="#d5d5d5" stroke="#202326" stroke-width="0" fill-rule="evenodd"/>
  <path id="path65" d="M101.42,147h9c.473,0,1.42.473,1.42.947v9c0,.473-.947.947-1.42.947h-9c-.947,0-1.42-.473-1.42-.947v-9C100,147.473,100.473,147,101.42,147Z" transform="translate(-56.915 -84.976)" fill="rgba(243,29,29,0.52)" stroke="#202326" stroke-width="0" fill-rule="evenodd"/>
  <path id="path67" d="M130.42,147h9.469c.473,0,1.42.473,1.42.947v9c0,.473-.947.947-1.42.947H130.42c-.947,0-1.42-.473-1.42-.947v-9C129,147.473,129.473,147,130.42,147Z" transform="translate(-72.184 -84.976)" fill="rgba(29,214,243,0.52)" stroke="#202326" stroke-width="0" fill-rule="evenodd"/>
  <path id="path69" d="M160.42,147h9.469c.947,0,1.42.473,1.42.947v9c0,.473-.473.947-1.42.947H160.42c-.947,0-1.42-.473-1.42-.947v-9C159,147.473,159.473,147,160.42,147Z" transform="translate(-87.981 -84.976)" fill="rgba(92,16,248,0.52)" stroke="#202326" stroke-width="0" fill-rule="evenodd"/>
  <path id="path71" d="M190.42,147h9c.947,0,1.42.473,1.42.947v9c0,.473-.473.947-1.42.947h-9c-.947,0-1.42-.473-1.42-.947v-9C189,147.473,189.473,147,190.42,147Z" transform="translate(-103.777 -84.976)" fill="#d5d5d5" stroke="#202326" stroke-width="0" fill-rule="evenodd"/>
  <path id="path73" d="M219.42,147h9.469c.947,0,1.42.473,1.42.947v9c0,.473-.473.947-1.42.947H219.42c-.947,0-1.42-.473-1.42-.947v-9C218,147.473,218.473,147,219.42,147Z" transform="translate(-119.046 -84.976)" fill="#d5d5d5" stroke="#202326" stroke-width="0" fill-rule="evenodd"/>
  <path id="path75" d="M249.42,147h9.469c.947,0,1.42.473,1.42.947v9c0,.473-.473.947-1.42.947H249.42c-.473,0-1.42-.473-1.42-.947v-9C248,147.473,248.947,147,249.42,147Z" transform="translate(-134.842 -84.976)" fill="#d5d5d5" stroke="#202326" stroke-width="0" fill-rule="evenodd"/>
  <path id="path77" d="M279.42,147h9c.947,0,1.42.473,1.42.947v9c0,.473-.473.947-1.42.947h-9c-.473,0-1.42-.473-1.42-.947v-9C278,147.473,278.947,147,279.42,147Z" transform="translate(-150.638 -84.976)" fill="#d5d5d5" stroke="#202326" stroke-width="0" fill-rule="evenodd"/>
  <path id="path79" d="M308.42,147h9.469c.947,0,1.42.473,1.42.947v9c0,.473-.473.947-1.42.947H308.42c-.473,0-1.42-.473-1.42-.947v-9C307,147.473,307.947,147,308.42,147Z" transform="translate(-165.908 -84.976)" fill="#d5d5d5" stroke="#202326" stroke-width="0" fill-rule="evenodd"/>
  <path id="path81" d="M338.42,147h9.469c.947,0,1.42.473,1.42.947v9c0,.473-.473.947-1.42.947H338.42c-.473,0-1.42-.473-1.42-.947v-9C337,147.473,337.947,147,338.42,147Z" transform="translate(-181.704 -84.976)" fill="#d5d5d5" stroke="#202326" stroke-width="0" fill-rule="evenodd"/>
  <path id="path83" d="M368.42,147h9.469c.947,0,1.42.473,1.42.947v9c0,.473-.473.947-1.42.947H368.42c-.473,0-1.42-.473-1.42-.947v-9C367,147.473,367.947,147,368.42,147Z" transform="translate(-197.5 -84.976)" fill="#d5d5d5" stroke="#202326" stroke-width="0" fill-rule="evenodd"/>
  <path id="path85" d="M397.42,147h9.469c.947,0,1.42.473,1.42.947v9c0,.473-.473.947-1.42.947H397.42c-.473,0-1.42-.473-1.42-.947v-9C396,147.473,396.947,147,397.42,147Z" transform="translate(-212.77 -84.976)" fill="#d5d5d5" stroke="#202326" stroke-width="0" fill-rule="evenodd"/>
  <path id="path87" d="M111.947,172h9.943c.473,0,.947.947.947,1.42v8.049c0,.947-.473,1.42-.947,1.42h-9.943c-.473,0-.947-.473-.947-1.42V173.42C111,172.947,111.473,172,111.947,172Z" transform="translate(-62.707 -98.14)" fill="#d5d5d5" stroke="#202326" stroke-width="0" fill-rule="evenodd"/>
  <path id="path89" d="M141.947,172h9.943c.473,0,.947.947.947,1.42v8.049c0,.947-.473,1.42-.947,1.42h-9.943c-.473,0-.947-.473-.947-1.42V173.42C141,172.947,141.473,172,141.947,172Z" transform="translate(-78.503 -98.14)" fill="#d5d5d5" stroke="#202326" stroke-width="0" fill-rule="evenodd"/>
  <path id="path91" d="M171.947,172h9.943c.473,0,.947.947.947,1.42v8.049c0,.947-.473,1.42-.947,1.42h-9.943c-.473,0-.947-.473-.947-1.42V173.42C171,172.947,171.473,172,171.947,172Z" transform="translate(-94.299 -98.14)" fill="#d5d5d5" stroke="#202326" stroke-width="0" fill-rule="evenodd"/>
  <path id="path93" d="M231.42,172h9.469c.473,0,.947.947.947,1.42v8.049c0,.947-.473,1.42-.947,1.42H231.42a1.255,1.255,0,0,1-1.42-1.42V173.42A1.512,1.512,0,0,1,231.42,172Z" transform="translate(-125.365 -98.14)" fill="#d5d5d5" stroke="#202326" stroke-width="0" fill-rule="evenodd"/>
  <path id="path95" d="M261.42,172h9.469c.473,0,.947.947.947,1.42v8.049c0,.947-.473,1.42-.947,1.42H261.42a1.255,1.255,0,0,1-1.42-1.42V173.42A1.512,1.512,0,0,1,261.42,172Z" transform="translate(-141.161 -98.14)" fill="#d5d5d5" stroke="#202326" stroke-width="0" fill-rule="evenodd"/>
  <path id="path97" d="M291.42,172h9c.473,0,.947.947.947,1.42v8.049c0,.947-.473,1.42-.947,1.42h-9a1.255,1.255,0,0,1-1.42-1.42V173.42A1.512,1.512,0,0,1,291.42,172Z" transform="translate(-156.957 -98.14)" fill="#d5d5d5" stroke="#202326" stroke-width="0" fill-rule="evenodd"/>
  <path id="path99" d="M320.42,172h9.469c.473,0,.947.947.947,1.42v8.049c0,.947-.473,1.42-.947,1.42H320.42a1.255,1.255,0,0,1-1.42-1.42V173.42A1.512,1.512,0,0,1,320.42,172Z" transform="translate(-172.227 -98.14)" fill="#d5d5d5" stroke="#202326" stroke-width="0" fill-rule="evenodd"/>
  <path id="path101" d="M350.42,172h9.469c.473,0,.947.947.947,1.42v8.049c0,.947-.474,1.42-.947,1.42H350.42a1.255,1.255,0,0,1-1.42-1.42V173.42A1.512,1.512,0,0,1,350.42,172Z" transform="translate(-188.023 -98.14)" fill="#d5d5d5" stroke="#202326" stroke-width="0" fill-rule="evenodd"/>
  <path id="path103" d="M380.42,172h9c.473,0,.947.947.947,1.42v8.049c0,.947-.473,1.42-.947,1.42h-9a1.255,1.255,0,0,1-1.42-1.42V173.42A1.512,1.512,0,0,1,380.42,172Z" transform="translate(-203.819 -98.14)" fill="#d5d5d5" stroke="#202326" stroke-width="0" fill-rule="evenodd"/>
  <path id="path105" d="M45.42,55H54.89a1.512,1.512,0,0,1,1.42,1.42v8.522a2.134,2.134,0,0,1-1.42,1.42H45.42A1.512,1.512,0,0,1,44,64.943V56.42A1.255,1.255,0,0,1,45.42,55Z" transform="translate(-27.429 -36.535)" fill="#d5d5d5" stroke="#202326" stroke-width="0" fill-rule="evenodd"/>
  <path id="path107" d="M104.947,55h9.469a1.255,1.255,0,0,1,1.42,1.42v8.522a1.512,1.512,0,0,1-1.42,1.42h-9.469c-.473,0-.947-.947-.947-1.42V56.42C104,55.473,104.473,55,104.947,55Z" transform="translate(-59.021 -36.535)" fill="#d5d5d5" stroke="#202326" stroke-width="0" fill-rule="evenodd"/>
  <path id="path109" d="M134.42,55h9.469a1.255,1.255,0,0,1,1.42,1.42v8.522a1.512,1.512,0,0,1-1.42,1.42H134.42a1.512,1.512,0,0,1-1.42-1.42V56.42A1.255,1.255,0,0,1,134.42,55Z" transform="translate(-74.291 -36.535)" fill="#d5d5d5" stroke="#202326" stroke-width="0" fill-rule="evenodd"/>
  <path id="path111" d="M164.42,55h9.469a1.255,1.255,0,0,1,1.42,1.42v8.522a1.512,1.512,0,0,1-1.42,1.42H164.42a2.134,2.134,0,0,1-1.42-1.42V56.42A1.512,1.512,0,0,1,164.42,55Z" transform="translate(-90.087 -36.535)" fill="#d5d5d5" stroke="#202326" stroke-width="0" fill-rule="evenodd"/>
  <path id="path113" d="M194.42,55h9a1.255,1.255,0,0,1,1.42,1.42v8.522a1.512,1.512,0,0,1-1.42,1.42h-9a2.134,2.134,0,0,1-1.42-1.42V56.42A1.512,1.512,0,0,1,194.42,55Z" transform="translate(-105.883 -36.535)" fill="#d5d5d5" stroke="#202326" stroke-width="0" fill-rule="evenodd"/>
  <path id="path115" d="M238.42,54h9.469c.473,0,.947.947.947,1.42v8.522c0,.947-.473,1.42-.947,1.42H238.42a1.255,1.255,0,0,1-1.42-1.42V55.42A1.512,1.512,0,0,1,238.42,54Z" transform="translate(-129.05 -36.008)" fill="#d5d5d5" stroke="#202326" stroke-width="0" fill-rule="evenodd"/>
  <path id="path117" d="M268.42,54h9.469c.473,0,.947.947.947,1.42v8.522c0,.947-.473,1.42-.947,1.42H268.42a1.255,1.255,0,0,1-1.42-1.42V55.42A1.512,1.512,0,0,1,268.42,54Z" transform="translate(-144.847 -36.008)" fill="#d5d5d5" stroke="#202326" stroke-width="0" fill-rule="evenodd"/>
  <path id="path119" d="M297.947,54h9.469c.473,0,.947.947.947,1.42v8.522c0,.947-.473,1.42-.947,1.42h-9.469c-.473,0-.947-.473-.947-1.42V55.42C297,54.947,297.473,54,297.947,54Z" transform="translate(-160.643 -36.008)" fill="#d5d5d5" stroke="#202326" stroke-width="0" fill-rule="evenodd"/>
  <path id="path121" d="M327.42,54h9.469c.473,0,.947.947.947,1.42v8.522c0,.947-.473,1.42-.947,1.42H327.42a1.255,1.255,0,0,1-1.42-1.42V55.42A1.512,1.512,0,0,1,327.42,54Z" transform="translate(-175.912 -36.008)" fill="#d5d5d5" stroke="#202326" stroke-width="0" fill-rule="evenodd"/>
  <path id="path123" d="M371.42,54h9.469c.473,0,.947.947.947,1.42v8.522c0,.947-.473,1.42-.947,1.42H371.42a1.255,1.255,0,0,1-1.42-1.42V55.42A1.512,1.512,0,0,1,371.42,54Z" transform="translate(-199.08 -36.008)" fill="#d5d5d5" stroke="#202326" stroke-width="0" fill-rule="evenodd"/>
  <path id="path125" d="M400.42,54h9.469c.473,0,.947.947.947,1.42v8.522c0,.947-.473,1.42-.947,1.42H400.42a1.255,1.255,0,0,1-1.42-1.42V55.42A1.512,1.512,0,0,1,400.42,54Z" transform="translate(-214.35 -36.008)" fill="#d5d5d5" stroke="#202326" stroke-width="0" fill-rule="evenodd"/>
  <path id="path127" d="M430.42,54h9.469c.473,0,.947.947.947,1.42v8.522c0,.947-.473,1.42-.947,1.42H430.42a1.255,1.255,0,0,1-1.42-1.42V55.42A1.512,1.512,0,0,1,430.42,54Z" transform="translate(-230.146 -36.008)" fill="#d5d5d5" stroke="#202326" stroke-width="0" fill-rule="evenodd"/>
  <path id="path129" d="M460.42,54h9.469c.473,0,.947.947.947,1.42v8.522c0,.947-.473,1.42-.947,1.42H460.42a1.255,1.255,0,0,1-1.42-1.42V55.42A1.512,1.512,0,0,1,460.42,54Z" transform="translate(-245.942 -36.008)" fill="#d5d5d5" stroke="#202326" stroke-width="0" fill-rule="evenodd"/>
  <path id="path131" d="M519.42,96h9.469a1.018,1.018,0,0,1,.947.947v8.522a1.018,1.018,0,0,1-.947.947H519.42c-.947,0-1.42-.473-1.42-.947V96.947C518,96.473,518.473,96,519.42,96Z" transform="translate(-277.007 -58.123)" fill="#d5d5d5" stroke="#202326" stroke-width="0" fill-rule="evenodd"/>
  <path id="path133" d="M549.42,96h9.469a1.018,1.018,0,0,1,.947.947v8.522a1.018,1.018,0,0,1-.947.947H549.42c-.947,0-1.42-.473-1.42-.947V96.947C548,96.473,548.473,96,549.42,96Z" transform="translate(-292.804 -58.123)" fill="#d5d5d5" stroke="#202326" stroke-width="0" fill-rule="evenodd"/>
  <path id="path135" d="M579.42,96h9a1.018,1.018,0,0,1,.947.947v8.522a1.018,1.018,0,0,1-.947.947h-9c-.947,0-1.42-.473-1.42-.947V96.947C578,96.473,578.473,96,579.42,96Z" transform="translate(-308.6 -58.123)" fill="#d5d5d5" stroke="#202326" stroke-width="0" fill-rule="evenodd"/>
  <path id="path137" d="M517.42,54h9.469a1.512,1.512,0,0,1,1.42,1.42v8.522a1.255,1.255,0,0,1-1.42,1.42H517.42a1.512,1.512,0,0,1-1.42-1.42V55.42A2.134,2.134,0,0,1,517.42,54Z" transform="translate(-275.954 -36.008)" fill="#d5d5d5" stroke="#202326" stroke-width="0" fill-rule="evenodd"/>
  <path id="path139" d="M547.42,54h9.469a1.512,1.512,0,0,1,1.42,1.42v8.522a1.255,1.255,0,0,1-1.42,1.42H547.42a1.512,1.512,0,0,1-1.42-1.42V55.42A2.134,2.134,0,0,1,547.42,54Z" transform="translate(-291.75 -36.008)" fill="#d5d5d5" stroke="#202326" stroke-width="0" fill-rule="evenodd"/>
  <path id="path141" d="M577.42,54h9a1.512,1.512,0,0,1,1.42,1.42v8.522a1.255,1.255,0,0,1-1.42,1.42h-9a1.512,1.512,0,0,1-1.42-1.42V55.42A2.134,2.134,0,0,1,577.42,54Z" transform="translate(-307.547 -36.008)" fill="#d5d5d5" stroke="#202326" stroke-width="0" fill-rule="evenodd"/>
  <path id="path143" d="M519.42,120h9.469c.473,0,.947.947.947,1.42v8.522c0,.947-.474,1.42-.947,1.42H519.42a1.255,1.255,0,0,1-1.42-1.42V121.42A1.512,1.512,0,0,1,519.42,120Z" transform="translate(-277.007 -70.76)" fill="#d5d5d5" stroke="#202326" stroke-width="0" fill-rule="evenodd"/>
  <path id="path145" d="M549.42,120h9.469c.473,0,.947.947.947,1.42v8.522c0,.947-.474,1.42-.947,1.42H549.42a1.255,1.255,0,0,1-1.42-1.42V121.42A1.512,1.512,0,0,1,549.42,120Z" transform="translate(-292.804 -70.76)" fill="#d5d5d5" stroke="#202326" stroke-width="0" fill-rule="evenodd"/>
  <path id="path147" d="M579.42,120h9c.473,0,.947.947.947,1.42v8.522c0,.947-.473,1.42-.947,1.42h-9a1.255,1.255,0,0,1-1.42-1.42V121.42A1.512,1.512,0,0,1,579.42,120Z" transform="translate(-308.6 -70.76)" fill="#d5d5d5" stroke="#202326" stroke-width="0" fill-rule="evenodd"/>
  <path id="path149" d="M519.42,197h9.469a1.018,1.018,0,0,1,.947.947v9a1.018,1.018,0,0,1-.947.947H519.42c-.947,0-1.42-.473-1.42-.947v-9C518,197.473,518.473,197,519.42,197Z" transform="translate(-277.007 -111.303)" fill="#d5d5d5" stroke="#202326" stroke-width="0" fill-rule="evenodd"/>
  <path id="path151" d="M549.42,197h9.469a1.018,1.018,0,0,1,.947.947v9a1.018,1.018,0,0,1-.947.947H549.42c-.947,0-1.42-.473-1.42-.947v-9C548,197.473,548.473,197,549.42,197Z" transform="translate(-292.804 -111.303)" fill="#d5d5d5" stroke="#202326" stroke-width="0" fill-rule="evenodd"/>
  <path id="path153" d="M579.42,197h9a1.018,1.018,0,0,1,.947.947v9a1.018,1.018,0,0,1-.947.947h-9c-.947,0-1.42-.473-1.42-.947v-9C578,197.473,578.473,197,579.42,197Z" transform="translate(-308.6 -111.303)" fill="#d5d5d5" stroke="#202326" stroke-width="0" fill-rule="evenodd"/>
  <path id="path155" d="M549.42,172h9.469c.473,0,.947.473.947,1.42v8.049c0,.473-.474,1.42-.947,1.42H549.42a1.512,1.512,0,0,1-1.42-1.42V173.42A1.255,1.255,0,0,1,549.42,172Z" transform="translate(-292.804 -98.14)" fill="#d5d5d5" stroke="#202326" stroke-width="0" fill-rule="evenodd"/>
  <path id="path157" d="M636.42,96h9.469c.947,0,1.42.473,1.42.947v8.522c0,.473-.473.947-1.42.947H636.42c-.473,0-1.42-.473-1.42-.947V96.947C635,96.473,635.947,96,636.42,96Z" transform="translate(-338.612 -58.123)" fill="#d5d5d5" stroke="#202326" stroke-width="0" fill-rule="evenodd"/>
  <path id="path159" d="M666.42,96h9c.947,0,1.42.473,1.42.947v8.522c0,.473-.474.947-1.42.947h-9c-.473,0-1.42-.473-1.42-.947V96.947C665,96.473,665.947,96,666.42,96Z" transform="translate(-354.408 -58.123)" fill="#d5d5d5" stroke="#202326" stroke-width="0" fill-rule="evenodd"/>
  <path id="path161" d="M695.42,96h9.469c.947,0,1.42.473,1.42.947v8.522c0,.473-.474.947-1.42.947H695.42c-.474,0-1.42-.473-1.42-.947V96.947C694,96.473,694.947,96,695.42,96Z" transform="translate(-369.678 -58.123)" fill="#d5d5d5" stroke="#202326" stroke-width="0" fill-rule="evenodd"/>
  <path id="path163" d="M636.42,120h9.469a1.512,1.512,0,0,1,1.42,1.42v8.522a1.255,1.255,0,0,1-1.42,1.42H636.42a1.512,1.512,0,0,1-1.42-1.42V121.42A2.134,2.134,0,0,1,636.42,120Z" transform="translate(-338.612 -70.76)" fill="#d5d5d5" stroke="#202326" stroke-width="0" fill-rule="evenodd"/>
  <path id="path165" d="M666.42,120h9a1.512,1.512,0,0,1,1.42,1.42v8.522a1.255,1.255,0,0,1-1.42,1.42h-9a1.512,1.512,0,0,1-1.42-1.42V121.42A2.134,2.134,0,0,1,666.42,120Z" transform="translate(-354.408 -70.76)" fill="#d5d5d5" stroke="#202326" stroke-width="0" fill-rule="evenodd"/>
  <path id="path167" d="M695.42,120h9.469a1.512,1.512,0,0,1,1.42,1.42v8.522a1.255,1.255,0,0,1-1.42,1.42H695.42a1.512,1.512,0,0,1-1.42-1.42V121.42A2.134,2.134,0,0,1,695.42,120Z" transform="translate(-369.678 -70.76)" fill="#d5d5d5" stroke="#202326" stroke-width="0" fill-rule="evenodd"/>
  <path id="path169" d="M636.42,146h9.469a1.255,1.255,0,0,1,1.42,1.42v8.522a1.255,1.255,0,0,1-1.42,1.42H636.42a1.512,1.512,0,0,1-1.42-1.42V147.42A1.512,1.512,0,0,1,636.42,146Z" transform="translate(-338.612 -84.45)" fill="rgba(243,29,29,0.52)" stroke="#202326" stroke-width="0" fill-rule="evenodd"/>
  <path id="path171" d="M666.42,146h9a1.255,1.255,0,0,1,1.42,1.42v8.522a1.255,1.255,0,0,1-1.42,1.42h-9a1.512,1.512,0,0,1-1.42-1.42V147.42A1.512,1.512,0,0,1,666.42,146Z" transform="translate(-354.408 -84.45)" fill="rgba(29,214,243,0.52)" stroke="#202326" stroke-width="0" fill-rule="evenodd"/>
  <path id="path173" d="M695.42,146h9.469a1.255,1.255,0,0,1,1.42,1.42v8.522a1.255,1.255,0,0,1-1.42,1.42H695.42a1.512,1.512,0,0,1-1.42-1.42V147.42A1.512,1.512,0,0,1,695.42,146Z" transform="translate(-369.678 -84.45)" fill="rgba(92,16,248,0.52)" stroke="#202326" stroke-width="0" fill-rule="evenodd"/>
  <path id="path175" d="M636.42,172h9.469a1.255,1.255,0,0,1,1.42,1.42v8.049a1.512,1.512,0,0,1-1.42,1.42H636.42a2.134,2.134,0,0,1-1.42-1.42V173.42A1.512,1.512,0,0,1,636.42,172Z" transform="translate(-338.612 -98.14)" fill="#d5d5d5" stroke="#202326" stroke-width="0" fill-rule="evenodd"/>
  <path id="path177" d="M666.42,172h9a1.255,1.255,0,0,1,1.42,1.42v8.049a1.512,1.512,0,0,1-1.42,1.42h-9a2.134,2.134,0,0,1-1.42-1.42V173.42A1.512,1.512,0,0,1,666.42,172Z" transform="translate(-354.408 -98.14)" fill="#d5d5d5" stroke="#202326" stroke-width="0" fill-rule="evenodd"/>
  <path id="path179" d="M695.42,172h9.469a1.255,1.255,0,0,1,1.42,1.42v8.049a1.512,1.512,0,0,1-1.42,1.42H695.42a2.134,2.134,0,0,1-1.42-1.42V173.42A1.512,1.512,0,0,1,695.42,172Z" transform="translate(-369.678 -98.14)" fill="#d5d5d5" stroke="#202326" stroke-width="0" fill-rule="evenodd"/>
  <path id="path181" d="M695.42,197h9.469c.947,0,1.42.473,1.42.947v9c0,.473-.474.947-1.42.947H695.42c-.474,0-1.42-.473-1.42-.947v-9C694,197.473,694.947,197,695.42,197Z" transform="translate(-369.678 -111.303)" fill="#d5d5d5" stroke="#202326" stroke-width="0" fill-rule="evenodd"/>
  <path id="path183" d="M725.42,96h9.469c.947,0,1.42.473,1.42.947v8.522c0,.473-.474.947-1.42.947H725.42c-.474,0-1.42-.473-1.42-.947V96.947C724,96.473,724.947,96,725.42,96Z" transform="translate(-385.474 -58.123)" fill="#d5d5d5" stroke="#202326" stroke-width="0" fill-rule="evenodd"/>
  <path id="path185" d="M154.628,197H149.42a1.255,1.255,0,0,0-1.42,1.42v8.522a1.255,1.255,0,0,0,1.42,1.42h93.272a2.074,2.074,0,0,0,.473-1.42V198.42a2.074,2.074,0,0,0-.473-1.42H154.628Z" transform="translate(-82.189 -111.303)" fill="#d5d5d5" stroke="#202326" stroke-width="0" fill-rule="evenodd"/>
  <path id="path187" d="M389.42,197h9c.473,0,.947.473.947,1.42v8.522c0,.947-.473,1.42-.947,1.42h-9a1.255,1.255,0,0,1-1.42-1.42V198.42A1.255,1.255,0,0,1,389.42,197Z" transform="translate(-208.558 -111.303)" fill="#d5d5d5" stroke="#202326" stroke-width="0" fill-rule="evenodd"/>
  <path id="path189" d="M418.42,197h9.469c.473,0,.947.473.947,1.42v8.522c0,.947-.473,1.42-.947,1.42H418.42a1.255,1.255,0,0,1-1.42-1.42V198.42A1.255,1.255,0,0,1,418.42,197Z" transform="translate(-223.827 -111.303)" fill="#d5d5d5" stroke="#202326" stroke-width="0" fill-rule="evenodd"/>
  <path id="path191" d="M736.31,121.42a1.512,1.512,0,0,0-1.42-1.42H725.42a2.134,2.134,0,0,0-1.42,1.42v20.832a1.512,1.512,0,0,0,1.42,1.42h9.469a1.255,1.255,0,0,0,1.42-1.42Z" transform="translate(-385.474 -70.76)" fill="#d5d5d5" stroke="#202326" stroke-width="0" fill-rule="evenodd"/>
  <path id="path193" d="M736.31,173.42a1.255,1.255,0,0,0-1.42-1.42H725.42a1.512,1.512,0,0,0-1.42,1.42v20.359c0,.473.947.947,1.42.947h9.469c.947,0,1.42-.473,1.42-.947Z" transform="translate(-385.474 -98.14)" fill="#d5d5d5" stroke="#202326" stroke-width="0" fill-rule="evenodd"/>
  <path id="path195" d="M201.473,172h9.943c.473,0,.947.947.947,1.42v8.049c0,.947-.473,1.42-.947,1.42h-9.943a2.074,2.074,0,0,1-.473-1.42V173.42A4.769,4.769,0,0,1,201.473,172Z" transform="translate(-110.095 -98.14)" fill="#d5d5d5" stroke="#202326" stroke-width="0" fill-rule="evenodd"/>
  <path id="path197" d="M45.42,132.363a1.512,1.512,0,0,1-1.42-1.42V122.42A1.255,1.255,0,0,1,45.42,121H63.412a1.255,1.255,0,0,1,1.42,1.42v8.522a1.512,1.512,0,0,1-1.42,1.42Z" transform="translate(-27.429 -71.286)" fill="#d5d5d5" stroke="#202326" stroke-width="0" fill-rule="evenodd"/>
  <path id="path199" d="M45.42,157.89c-.473,0-1.42-.473-1.42-.947v-9c0-.473.947-.947,1.42-.947H66.726c.947,0,1.894.473,1.894.947v9c0,.473-.947.947-1.894.947Z" transform="translate(-27.429 -84.976)" fill="#d5d5d5" stroke="#202326" stroke-width="0" fill-rule="evenodd"/>
  <path id="path305" d="M561,182.735V178" transform="translate(-299.649 -101.299)" fill="#d5d5d5" stroke="#2b2828" stroke-width="0" fill-rule="evenodd"/>
  <path id="path309" d="M561,203v5.208" transform="translate(-299.649 -114.462)" fill="#d5d5d5" stroke="#2b2828" stroke-width="0" fill-rule="evenodd"/>
  <path id="path313" d="M585,208h4.735" transform="translate(-312.285 -117.095)" fill="#d5d5d5" stroke="#2b2828" stroke-width="0" fill-rule="evenodd"/>
  <path id="path317" d="M530.208,208H525" transform="translate(-280.693 -117.095)" fill="#d5d5d5" stroke="#2b2828" stroke-width="0" fill-rule="evenodd"/>
  <path id="path373" d="M636.42,207.89c-.473,0-1.42-.473-1.42-.947v-9c0-.473.947-.947,1.42-.947h23.2c.947,0,1.42.473,1.42.947v9c0,.473-.473.947-1.42.947Z" transform="translate(-338.612 -111.303)" fill="#d5d5d5" stroke="#202326" stroke-width="0" fill-rule="evenodd"/>
  <path id="path407" d="M516,70h12.31" transform="translate(-275.954 -44.433)" fill="#d5d5d5" stroke="#2b2828" stroke-width="0" fill-rule="evenodd"/>
  <path id="path551" d="M408.947,182.89c-.473,0-.947-.473-.947-1.42V173.42c0-.473.473-1.42.947-1.42H443.51a1.512,1.512,0,0,1,1.42,1.42v8.049a1.255,1.255,0,0,1-1.42,1.42Z" transform="translate(-219.088 -98.14)" fill="#d5d5d5" stroke="#202326" stroke-width="0" fill-rule="evenodd"/>
  <path id="path553" d="M435.469,133.31H427.42c-.947,0-1.42.473-1.42.947v9c0,.473.473.947,1.42.947h25.567c.947,0,1.42-.473,1.42-.947V122.42a1.255,1.255,0,0,0-1.42-1.42H438.31a1.255,1.255,0,0,0-1.42,1.42v9.469C436.89,132.837,436.89,133.31,435.469,133.31Z" transform="translate(-228.566 -71.286)" fill="#d5d5d5" stroke="#202326" stroke-width="0" fill-rule="evenodd"/>
  <path id="path559" d="M448.42,197h15.624a1.255,1.255,0,0,1,1.42,1.42v8.522a1.255,1.255,0,0,1-1.42,1.42H448.42a1.255,1.255,0,0,1-1.42-1.42V198.42A1.255,1.255,0,0,1,448.42,197Z" transform="translate(-239.623 -111.303)" fill="#d5d5d5" stroke="#202326" stroke-width="0" fill-rule="evenodd"/>
  <path id="path561" d="M45.42,182.89a1.512,1.512,0,0,1-1.42-1.42V173.42A2.134,2.134,0,0,1,45.42,172H72.408c.473,0,.947.947.947,1.42v8.049c0,.947-.473,1.42-.947,1.42Z" transform="translate(-27.429 -98.14)" fill="#d5d5d5" stroke="#202326" stroke-width="0" fill-rule="evenodd"/>
  <path id="path563" d="M45.42,197h14.2c.473,0,.947.473.947,1.42v8.522c0,.947-.473,1.42-.947,1.42H45.42a1.255,1.255,0,0,1-1.42-1.42V198.42A1.255,1.255,0,0,1,45.42,197Z" transform="translate(-27.429 -111.303)" fill="#d5d5d5" stroke="#202326" stroke-width="0" fill-rule="evenodd"/>
  <path id="path565" d="M85.42,197h9a1.255,1.255,0,0,1,1.42,1.42v8.522a1.512,1.512,0,0,1-1.42,1.42h-9a2.134,2.134,0,0,1-1.42-1.42V198.42A1.512,1.512,0,0,1,85.42,197Z" transform="translate(-48.49 -111.303)" fill="#d5d5d5" stroke="#202326" stroke-width="0" fill-rule="evenodd"/>
  <path id="path567" d="M114.947,197h11.837c.473,0,.947.473.947,1.42v8.522c0,.473-.473,1.42-.947,1.42H114.947c-.473,0-.947-.947-.947-1.42V198.42C114,197.473,114.473,197,114.947,197Z" transform="translate(-64.286 -111.303)" fill="#d5d5d5" stroke="#202326" stroke-width="0" fill-rule="evenodd"/>
  <path id="path829" d="M642,69.42h3.314V68H642Z" transform="translate(-342.298 -43.38)" fill="#d5d5d5" fill-rule="evenodd"/>
  <path id="path831" d="M642,69.42h3.314V68H642Z" transform="translate(-342.298 -43.38)" fill="#d5d5d5" stroke="#2b2828" stroke-width="0" fill-rule="evenodd"/>
  <path id="path841" d="M683,69.42h3.314V68H683Z" transform="translate(-363.886 -43.38)" fill="#d5d5d5" fill-rule="evenodd"/>
  <path id="path843" d="M683,69.42h3.314V68H683Z" transform="translate(-363.886 -43.38)" fill="#d5d5d5" stroke="#2b2828" stroke-width="0" fill-rule="evenodd"/>
  <path id="path853" d="M724,69.42h3.314V68H724Z" transform="translate(-385.474 -43.38)" fill="#d5d5d5" fill-rule="evenodd"/>
  <path id="path855" d="M724,69.42h3.314V68H724Z" transform="translate(-385.474 -43.38)" fill="#d5d5d5" stroke="#2b2828" stroke-width="0" fill-rule="evenodd"/>
  <path id="path865" d="M354.947,197H366.31c.473,0,.947.473.947,1.42v8.522c0,.473-.473,1.42-.947,1.42H354.947c-.473,0-.947-.947-.947-1.42V198.42C354,197.473,354.473,197,354.947,197Z" transform="translate(-190.655 -111.303)" fill="#d5d5d5" stroke="#202326" stroke-width="0" fill-rule="evenodd"/>
  <path id="path143-2" data-name="path143" d="M519.42,120h9.469c.473,0,.947.947.947,1.42v8.522c0,.947-.474,1.42-.947,1.42H519.42a1.255,1.255,0,0,1-1.42-1.42V121.42A1.512,1.512,0,0,1,519.42,120Z" transform="translate(-277.007 -70.76)" fill="#d5d5d5" stroke="#202326" stroke-width="0" fill-rule="evenodd"/>
</svg>
