<svg xmlns="http://www.w3.org/2000/svg" width="60.403" height="61.927" viewBox="0 0 60.403 61.927">
  <path id="Path_23" data-name="Path 23" d="M61.6-137.9c-1.5,1.2-4.9,5.4-7.7,9.5-2.7,4-6.2,8-7.7,8.8-1.7,1-2.1,1.5-1.1,1.6,2.1,0,6.3-4.2,10.5-10.5,5.9-8.9,7.9-10.5,13.1-10.5,3.1,0,18.9,5.4,21,7.2.9.7,1.3,4.5,1.3,12.3,0,13.4-.6,14.4-6.8,12-4-1.6-5.3-3.5-6.6-9.6-.4-1.8-1.9-3.3-4.6-4.7-2.2-1.1-4-1.8-4-1.6,0,.5,2.6,3.5,5.8,6.8,1.5,1.6,1.9,2.7,1.2,3.1-.6.4-1,2.4-.9,4.5.2,2.5-.3,4.3-1.4,5.4-2.3,2.3-2.2,7.8.2,10,1.6,1.5,1.8,2.2.9,4.8-1,2.8-.8,3.4,1.2,5a16.6,16.6,0,0,0,6.3,2.5c3.7.6,3.9.7,1.7,1.5-3.4,1.3-20.2-.1-29.4-2.3-4.3-1.1-8.5-1.9-9.4-1.7-3.7.7,18,5,27.8,5.5,8.6.5,11.1.3,13.7-1.1A16.282,16.282,0,0,1,92.9-81c3.8,0,6.3-2.5,5.9-5.9a6.488,6.488,0,0,1,2-4.9c2.4-2.4,3-8,1.1-9.9-.8-.8-.5-1.7,1-3.2,2.4-2.4,2.8-7.8.7-10.6-1.2-1.7-1.2-2.4.1-4.8,2-4,.8-8.1-3.5-11.7-5.8-4.7-9.9-6.3-14.8-5.6a20.455,20.455,0,0,1-8.5-.9C70.9-140.7,64.8-140.4,61.6-137.9Zm32.6,3.3c2.1,1.2,3.5,2.6,3.1,2.9-1.3,1.4-4.3.6-8-1.9-5-3.4-5-3.4-1.7-3.4A15.242,15.242,0,0,1,94.2-134.6Zm7.6,5.8c1.6,1.6,1.6,8,0,9.6-.7.7-3.2,1.2-5.6,1.2H91.7l.7-3.8a52.569,52.569,0,0,0,.6-6c0-1.9.5-2.2,3.8-2.2C98.9-130,101.1-129.5,101.8-128.8Zm1.1,15a5.456,5.456,0,0,1,.5,5.5c-.9,2.6-1.4,2.8-7.1,3.3-5.5.5-6,.3-5.2-1.2a15.679,15.679,0,0,0,.9-5.7c0-3.3.4-4,2.3-4.4C98.9-117.2,101.4-116.5,102.9-113.8Zm-23.5,4.5a16.408,16.408,0,0,0,6.2,3.9l3.9,1.2-5.2.1c-4.3.1-5.5-.3-6.7-2.1-1.5-2.2-2.2-5.8-1.1-5.8A11.279,11.279,0,0,1,79.4-109.3Zm19.3,6.8c4,.9,4.3,8.4.4,10.4-2.6,1.4-22.1-.7-24.3-2.7A5.482,5.482,0,0,1,73-98.6c0-4.3,1.9-4.9,13.1-4.6C91.8-103.1,97.5-102.7,98.7-102.5ZM96.9-88.4c1.2,1.1,1.2,1.8.2,4-1.2,2.6-1.3,2.7-9,2.1-4.3-.3-8.8-1-10-1.6-2.5-1.4-2.8-5.6-.6-6.9C79.7-91.9,95.2-90.1,96.9-88.4Z" transform="translate(-44.56 139.979)"/>
</svg>
