<svg xmlns="http://www.w3.org/2000/svg" width="101.746" height="49.839" viewBox="0 0 101.746 49.839">
  <path id="Path_26" data-name="Path 26" d="M342.4-132.6c-1.5,4,0,5,15.3,10.1,14.6,4.8,22.4,8.8,20.6,10.5-.8.8-16.5,4.1-28.2,5.9-8,1.3-11.3,3.3-10.9,6.8.6,4.8,2.3,4.9,20.2,2,9.1-1.5,17.2-3,18-3.3,1-.4,1.7.3,2.2,2,.6,2.6,4.8,5.6,7.8,5.6,2.7,0,6.2,2.1,7.1,4.3,2.2,4.9,9.3,5.8,25,3.2A118.785,118.785,0,0,1,432.4-87c2.2,0,3.6-.3,3.2-.7-.9-.9-5.6-.6-18.5,1.3-5.7.9-12.2,1.4-14.3,1.1-4-.5-7.8-3.1-7.8-5.1,0-.6,2.4-3.7,5.3-6.9,4.9-5.3,5.6-5.7,9.8-5.7,9,0,8.4,1.7-2.9,8.4-3.5,2.1-6.1,4-5.8,4.3.6.6,13.9-7.2,15.6-9.1.7-.9,2.9-1.6,4.9-1.7l3.6-.1-4-.8a69.672,69.672,0,0,1-9-2.8c-6-2.4-8.4-1.6-11.6,3.9-3.2,5.3-6,7.9-8.6,7.9-3.2,0-3.8-3.5-1.8-10.4,1.5-5.1,2.3-6.2,7.6-10.1,14.6-10.8,22-12.1,34.5-6.1,4.2,2,7.9,3.4,8.2,3.1.3-.2-3-2.1-7.3-4.1l-7.7-3.7-17.7-.4c-18.1-.4-23.3-1.2-44-6.8C353.5-134.3,343.3-134.8,342.4-132.6Zm28.6,4.2c10.8,3.2,14.3,3.7,25.8,4.1,7.2.3,13.2.8,13.2,1.2,0,.3-2.8,2.2-6.2,4.1a65.239,65.239,0,0,0-10.4,7.7c-2.4,2.2-5.7,4.4-7.4,4.8a11.773,11.773,0,0,0-5,2.5c-3.1,3.1-37.1,9-39.6,6.9-4.2-3.4.2-6.3,12.6-8.3,11.6-1.9,23.1-4.4,24.9-5.6a2,2,0,0,0,.8-2.4c-1.1-2.7-6.7-5.5-21.2-10.2-7.7-2.5-14.4-4.9-14.9-5.4a2.566,2.566,0,0,1-.2-2.6C344.4-134.2,355.8-132.9,371-128.4Zm18.5,24.1a27.121,27.121,0,0,0-1.2,6c-.3,2.4-.7,4.3-1,4.3a19.28,19.28,0,0,1-3.4-1.6c-2.5-1.3-3-2-2.7-4.7.2-2.7.9-3.4,3.8-4.4C389.8-106.3,390.3-106.3,389.5-104.3Zm19.2-.1a2.026,2.026,0,0,1-1.9.1c-.8-.3-.5-.6.6-.6C408.5-105,409.1-104.7,408.7-104.4Z" transform="translate(-339.124 134.029)" stroke="#707070" stroke-width="0.1"/>
</svg>
